<mxfile host="app.diagrams.net" modified="2020-08-27T13:38:15.945Z" agent="5.0 (X11)" etag="Pl4nqL8b-e9U5MjUVfJU" version="13.6.4" type="github">
  <diagram id="qAN8BNykUX0iW7Gk-JXV" name="Page-1">
    <mxGraphModel dx="1422" dy="803" grid="1" gridSize="10" guides="1" tooltips="1" connect="1" arrows="1" fold="1" page="1" pageScale="1" pageWidth="850" pageHeight="1100" math="0" shadow="0">
      <root>
        <mxCell id="0" />
        <mxCell id="1" parent="0" />
        <mxCell id="rYGJWD3eyZp_5iSqgx2w-1" value="" style="shape=image;verticalLabelPosition=bottom;labelBackgroundColor=#ffffff;verticalAlign=top;aspect=fixed;imageAspect=0;image=https://www.comp.nus.edu.sg/~dbsystem/blockbench/pic/blockbench.png;" parent="1" vertex="1">
          <mxGeometry x="210" y="200" width="429.13" height="340" as="geometry" />
        </mxCell>
        <mxCell id="rYGJWD3eyZp_5iSqgx2w-3" style="rounded=0;orthogonalLoop=1;jettySize=auto;html=1;exitX=1;exitY=0.5;exitDx=0;exitDy=0;" parent="1" source="rYGJWD3eyZp_5iSqgx2w-2" edge="1">
          <mxGeometry relative="1" as="geometry">
            <mxPoint x="230" y="370" as="targetPoint" />
          </mxGeometry>
        </mxCell>
        <mxCell id="rYGJWD3eyZp_5iSqgx2w-2" value="&lt;div&gt;core.yaml&lt;/div&gt;&lt;div&gt;orderer.yaml&lt;/div&gt;&lt;div&gt;app.yaml&lt;/div&gt;&lt;div&gt;... (network.sh?)&lt;br&gt;&lt;/div&gt;" style="rounded=0;whiteSpace=wrap;html=1;" parent="1" vertex="1">
          <mxGeometry x="40" y="290" width="120" height="60" as="geometry" />
        </mxCell>
        <mxCell id="rYGJWD3eyZp_5iSqgx2w-5" style="edgeStyle=none;rounded=0;orthogonalLoop=1;jettySize=auto;html=1;exitX=1;exitY=0.5;exitDx=0;exitDy=0;" parent="1" source="rYGJWD3eyZp_5iSqgx2w-4" edge="1">
          <mxGeometry relative="1" as="geometry">
            <mxPoint x="380" y="380" as="targetPoint" />
          </mxGeometry>
        </mxCell>
        <mxCell id="rYGJWD3eyZp_5iSqgx2w-4" value="&lt;div&gt;smallbank.cc&lt;/div&gt;&lt;div&gt;&lt;br&gt;&lt;/div&gt;" style="rounded=0;whiteSpace=wrap;html=1;" parent="1" vertex="1">
          <mxGeometry x="40" y="400" width="120" height="60" as="geometry" />
        </mxCell>
        <mxCell id="rYGJWD3eyZp_5iSqgx2w-7" style="edgeStyle=none;rounded=0;orthogonalLoop=1;jettySize=auto;html=1;exitX=0;exitY=0.5;exitDx=0;exitDy=0;" parent="1" source="rYGJWD3eyZp_5iSqgx2w-6" edge="1">
          <mxGeometry relative="1" as="geometry">
            <mxPoint x="610" y="360" as="targetPoint" />
          </mxGeometry>
        </mxCell>
        <mxCell id="rYGJWD3eyZp_5iSqgx2w-6" value="&lt;div&gt;block-server.js&lt;/div&gt;&lt;div&gt;txn-server.js&lt;br&gt;&lt;/div&gt;" style="rounded=0;whiteSpace=wrap;html=1;" parent="1" vertex="1">
          <mxGeometry x="690" y="290" width="120" height="60" as="geometry" />
        </mxCell>
      </root>
    </mxGraphModel>
  </diagram>
</mxfile>
